<svg width="20" height="20" viewBox="0 0 20 20" fill="none" xmlns="http://www.w3.org/2000/svg">
<g clip-path="url(#clip0_628_352)">
<path d="M20 10C20 4.48566 15.5143 -1.96075e-07 10 -4.37114e-07C4.48566 -6.78153e-07 -1.96075e-07 4.48566 -4.37114e-07 10C-6.78153e-07 15.5143 4.48644 20 10 20C15.5136 20 20 15.5143 20 10ZM1.54918 10C1.54918 5.34082 5.34004 1.54918 10 1.54918C14.66 1.54918 18.4508 5.34082 18.4508 10C18.4508 14.66 14.66 18.4508 10 18.4508C5.34004 18.4508 1.54918 14.6592 1.54918 10Z" fill="#0D4C93"/>
<path d="M8.93104 14.423L12.804 10.5501C13.1046 10.248 13.1046 9.76 12.804 9.45789L8.93104 5.58491C8.64135 5.33628 8.21299 5.33628 7.92331 5.58491C7.59874 5.863 7.56081 6.35253 7.83889 6.6771L11.1619 10.0001L7.83885 13.3309C7.53831 13.633 7.53831 14.1209 7.83885 14.423C8.14096 14.7236 8.62897 14.7236 8.93104 14.423Z" fill="#0D4C93"/>
</g>
<defs>
<clipPath id="clip0_628_352">
<rect width="20" height="20" fill="white" transform="translate(20) rotate(90)"/>
</clipPath>
</defs>
</svg>
