<svg width="14" height="13" viewBox="0 0 14 13" fill="none" xmlns="http://www.w3.org/2000/svg">
<path d="M1.10526 0C0.494843 0 0 0.485025 0 1.08333C0 1.68164 0.494843 2.16667 1.10526 2.16667H12.8947C13.5052 2.16667 14 1.68164 14 1.08333C14 0.485025 13.5052 0 12.8947 0H1.10526Z" fill="#0D4C93"/>
<path d="M1.10526 3.61111C0.494843 3.61111 0 4.09614 0 4.69444C0 5.29275 0.494843 5.77778 1.10526 5.77778H8.47368C9.0841 5.77778 9.57895 5.29275 9.57895 4.69444C9.57895 4.09614 9.0841 3.61111 8.47368 3.61111H1.10526Z" fill="#0D4C93"/>
<path d="M0 8.30556C0 7.70725 0.494843 7.22222 1.10526 7.22222H12.8947C13.5052 7.22222 14 7.70725 14 8.30556C14 8.90386 13.5052 9.38889 12.8947 9.38889H1.10526C0.494843 9.38889 0 8.90386 0 8.30556Z" fill="#0D4C93"/>
<path d="M1.10526 10.8333C0.494843 10.8333 0 11.3184 0 11.9167C0 12.515 0.494843 13 1.10526 13H8.47368C9.0841 13 9.57895 12.515 9.57895 11.9167C9.57895 11.3184 9.0841 10.8333 8.47368 10.8333H1.10526Z" fill="#0D4C93"/>
</svg>
