<svg width="22" height="22" viewBox="0 0 22 22" fill="none" xmlns="http://www.w3.org/2000/svg">
<g clip-path="url(#clip0_623_6843)">
<path d="M9.10989 12.89C7.01003 10.7902 6.53589 8.69031 6.42892 7.849C6.39903 7.61637 6.47909 7.38309 6.64551 7.21782L8.34482 5.51927C8.59479 5.26946 8.63915 4.88013 8.45178 4.58048L5.74616 0.379239C5.53888 0.0474371 5.11326 -0.0723136 4.76337 0.102722L0.419889 2.14834C0.136946 2.28767 -0.0294772 2.58829 0.00264784 2.90203C0.230234 5.0641 1.17282 10.379 6.39592 15.6025C11.619 20.826 16.9332 21.7682 19.0964 21.9958C19.4101 22.0279 19.7107 21.8615 19.8501 21.5785L21.8957 17.235C22.0701 16.8859 21.9511 16.4614 21.6207 16.2538L17.4194 13.5489C17.12 13.3613 16.7306 13.4054 16.4806 13.6551L14.7821 15.3544C14.6168 15.5208 14.3835 15.6009 14.1509 15.571C13.3096 15.464 11.2097 14.9899 9.10989 12.89Z" fill="#0D4C93"/>
<path d="M17.4483 11.7585C17.0293 11.7585 16.6896 11.4188 16.6896 10.9999C16.6861 7.85903 14.1408 5.31376 11 5.31021C10.581 5.31021 10.2414 4.97056 10.2414 4.55159C10.2414 4.13261 10.581 3.79297 11 3.79297C14.9784 3.79736 18.2025 7.02142 18.2069 10.9999C18.2069 11.4188 17.8672 11.7585 17.4483 11.7585Z" fill="#0D4C93"/>
<path d="M21.2414 11.7586C20.8224 11.7586 20.4827 11.419 20.4827 11C20.4769 5.76524 16.2347 1.52309 11 1.51724C10.581 1.51724 10.2414 1.1776 10.2414 0.758621C10.2414 0.339646 10.581 0 11 0C17.0723 0.00668947 21.9933 4.92764 22 11C22 11.2012 21.9201 11.3942 21.7778 11.5364C21.6355 11.6787 21.4426 11.7586 21.2414 11.7586Z" fill="#0D4C93"/>
</g>
<defs>
<clipPath id="clip0_623_6843">
<rect width="22" height="22" fill="white"/>
</clipPath>
</defs>
</svg>
